<svg xmlns="http://www.w3.org/2000/svg" viewBox="0 0 1600 900" role="img" aria-labelledby="title desc">
  <title id="title">团队知识循环</title>
  <desc id="desc">个人经验、团队知识和 AI 可执行知识之间的循环。</desc>
  <rect width="1600" height="900" fill="#f7f5f2"/>
  <g fill="none" stroke="#111820" stroke-width="5" stroke-linecap="round" stroke-linejoin="round">
    <circle cx="800" cy="450" r="240" opacity=".18"/>
    <path d="M642 270c117-80 283-65 382 39M1054 343l-18-79 78 20" stroke="#4a6cf7"/>
    <path d="M1055 552c-35 138-156 234-295 238M828 818l-69-44 70-43" stroke="#4a6cf7"/>
    <path d="M575 620c-103-95-131-252-66-376M450 280l80-12-28 76" stroke="#4a6cf7"/>
    <rect x="178" y="302" width="356" height="190" rx="24" fill="#fff"/>
    <rect x="622" y="122" width="356" height="190" rx="24" fill="#fff"/>
    <rect x="1066" y="514" width="356" height="190" rx="24" fill="#fff"/>
    <path d="M246 374h208M246 422h148M690 194h208M690 242h148M1134 586h208M1134 634h148" opacity=".42"/>
  </g>
  <g font-family="Inter, 'Noto Sans SC', sans-serif" fill="#111820">
    <text x="246" y="365" font-size="30" font-weight="800">个人经验</text>
    <text x="246" y="456" font-size="21" opacity=".6">脑内上下文</text>
    <text x="690" y="185" font-size="30" font-weight="800">团队知识</text>
    <text x="690" y="276" font-size="21" opacity=".6">规范 / 边界 / 取舍</text>
    <text x="1134" y="577" font-size="30" font-weight="800">AI 可执行</text>
    <text x="1134" y="668" font-size="21" opacity=".6">Skills / Workflow</text>
    <text x="668" y="466" font-size="36" font-weight="800">Knowledge Loop</text>
  </g>
</svg>
